:FULLY-SPECIFIED
:FORCE-ALL-JOINTS-BE-3DOF
:DEGREES
3058
root -1.5989 15.9609 -34.1905 1087.78 2.02843 1.6059
lfemur -34.1633 3.79938 -2.44164
ltibia 54.3228 0 0
lfoot -11.2074 -4.65851 0
ltoes -45.4986 0 0
rfemur -37.7378 -1.68348 24.5183
rtibia 61.6149 0 0
rfoot -22.2243 -26.0141 0
rtoes 1.2402 0 0
lowerback 12.9459 0.644615 -2.03398
upperback -1.05818 0.677996 1.65197
thorax -8.46406 0.46422 2.78066
lowerneck 4.30375 -9.05325 -12.5235
upperneck -3.66894 -12.4727 10.2682
head -0.339333 -6.3091 5.10794
lclavicle 7.65841e-15 -1.24562e-14 0
lhumerus 15.4354 -43.2802 86.7733
lradius 69.5958 0 0
lwrist -9.54942 0 0
lhand -25.9231 393.512 0
lfingers 7.12502 0 0
lthumb 0.620063 -656.511 0
rclavicle 7.65841e-15 -1.24562e-14 0
rhumerus 23.0275 46.6226 -46.4477
rradius 104.907 0 0
rwrist -42.6408 0 0
rhand -8.19729 -389.779 0
rfingers 7.12502 0 0
rthumb 17.719 301.008 0
3059
root -1.56427 15.9672 -34.1693 1087.76 2.11711 1.59854
lfemur -34.1427 3.78172 -2.4684
ltibia 54.2874 0 0
lfoot -11.2597 -4.65725 0
ltoes -45.5128 0 0
rfemur -37.6921 -1.68983 24.4901
rtibia 61.6075 0 0
rfoot -22.1834 -26.0066 0
rtoes 1.11372 0 0
lowerback 12.9388 0.6407 -2.01406
upperback -1.05999 0.675782 1.64967
thorax -8.46161 0.462159 2.76732
lowerneck 4.28283 -9.03123 -12.5008
upperneck -3.64529 -12.4411 10.2507
head -0.334944 -6.29292 5.0986
lclavicle 7.59159e-15 -1.22579e-14 0
lhumerus 15.2418 -43.3345 86.8537
lradius 69.6374 0 0
lwrist -9.37415 0 0
lhand -25.9605 393.599 0
lfingers 7.12502 0 0
lthumb 0.583939 -656.424 0
rclavicle 7.59159e-15 -1.22579e-14 0
rhumerus 22.7123 46.7136 -46.6628
rradius 104.991 0 0
rwrist -42.5931 0 0
rhand -8.19332 -389.842 0
rfingers 7.12502 0 0
rthumb 17.7228 300.946 0
3060
root -1.52963 15.9734 -34.148 1087.76 2.13156 1.58667
lfemur -34.1561 3.79599 -2.48099
ltibia 54.315 0 0
lfoot -11.2462 -4.62467 0
ltoes -45.4562 0 0
rfemur -37.6686 -1.75637 24.5002
rtibia 61.599 0 0
rfoot -22.1421 -26.051 0
rtoes 1.01525 0 0
lowerback 12.9387 0.635253 -1.99906
upperback -1.06153 0.67065 1.64777
thorax -8.4627 0.458977 2.75783
lowerneck 4.27304 -9.02861 -12.4902
upperneck -3.63383 -12.4368 10.2453
head -0.331012 -6.29065 5.09458
lclavicle 7.61719e-15 -1.21421e-14 0
lhumerus 15.2013 -43.3463 86.8747
lradius 69.6459 0 0
lwrist -9.20746 0 0
lhand -26.0226 393.66 0
lfingers 7.12502 0 0
lthumb 0.523963 -656.363 0
rclavicle 7.61719e-15 -1.21421e-14 0
rhumerus 22.6115 46.717 -46.7755
rradius 104.991 0 0
rwrist -42.6113 0 0
rhand -8.18063 -389.89 0
rfingers 7.12502 0 0
rthumb 17.735 300.899 0
3061
root -1.49499 15.9797 -34.1268 1087.75 2.12413 1.56759
lfemur -34.1887 3.82912 -2.49394
ltibia 54.3797 0 0
lfoot -11.2012 -4.565 0
ltoes -45.3463 0 0
rfemur -37.6428 -1.87677 24.5298
rtibia 61.5863 0 0
rfoot -22.0816 -26.1358 0
rtoes 0.882101 0 0
lowerback 12.9412 0.626702 -1.97903
upperback -1.06366 0.662028 1.64514
thorax -8.46565 0.453894 2.74545
lowerneck 4.26301 -9.03223 -12.4794
upperneck -3.62178 -12.4409 10.242
head -0.325441 -6.2927 5.09075
lclavicle 7.69017e-15 -1.20046e-14 0
lhumerus 15.2009 -43.3473 86.8825
lradius 69.6456 0 0
lwrist -8.96716 0 0
lhand -26.1228 393.739 0
lfingers 7.12502 0 0
lthumb 0.427133 -656.285 0
rclavicle 7.69017e-15 -1.20046e-14 0
rhumerus 22.5465 46.6883 -46.9007
rradius 104.961 0 0
rwrist -42.6631 0 0
rhand -8.15872 -389.953 0
rfingers 7.12502 0 0
rthumb 17.7561 300.837 0
3062
root -1.46035 15.986 -34.1055 1087.74 2.14717 1.53859
lfemur -34.2259 3.86805 -2.52178
ltibia 54.4552 0 0
lfoot -11.1589 -4.48247 0
ltoes -45.2005 0 0
rfemur -37.5903 -2.0447 24.5598
rtibia 61.566 0 0
rfoot -21.983 -26.2496 0
rtoes 0.651592 0 0
lowerback 12.9419 0.613477 -1.94402
upperback -1.06727 0.649342 1.64066
thorax -8.46879 0.446133 2.72342
lowerneck 4.24137 -9.02895 -12.4561
upperneck -3.59634 -12.4347 10.2309
head -0.316134 -6.28944 5.08199
lclavicle 7.76545e-15 -1.17411e-14 0
lhumerus 15.1279 -43.3689 86.9234
lradius 69.6608 0 0
lwrist -8.57101 0 0
lhand -26.2747 393.88 0
lfingers 7.12502 0 0
lthumb 0.280445 -656.144 0
rclavicle 7.76545e-15 -1.17411e-14 0
rhumerus 22.339 46.683 -47.1536
rradius 104.95 0 0
rwrist -42.7165 0 0
rhand -8.12711 -390.064 0
rfingers 7.12502 0 0
rthumb 17.7865 300.729 0
3063
root -1.42572 15.9923 -34.0843 1087.71 2.25302 1.49697
lfemur -34.2529 3.89972 -2.57903
ltibia 54.5157 0 0
lfoot -11.1535 -4.38134 0
ltoes -45.0362 0 0
rfemur -37.4864 -2.25383 24.5715
rtibia 61.535 0 0
rfoot -21.8276 -26.3809 0
rtoes 0.261039 0 0
lowerback 12.9366 0.594006 -1.88407
upperback -1.07324 0.632019 1.63322
thorax -8.47044 0.434915 2.685
lowerneck 4.19676 -9.00564 -12.4079
upperneck -3.54472 -12.3995 10.2022
head -0.300997 -6.27127 5.06315
lclavicle 7.79798e-15 -1.12474e-14 0
lhumerus 14.8692 -43.4428 87.0436
lradius 69.7159 0 0
lwrist -7.9368 0 0
lhand -26.4917 394.129 0
lfingers 7.12502 0 0
lthumb 0.0708954 -655.897 0
rclavicle 7.79798e-15 -1.12474e-14 0
rhumerus 21.8104 46.7565 -47.6492
rradius 105.011 0 0
rwrist -42.7393 0 0
rhand -8.08531 -390.255 0
rfingers 7.12502 0 0
rthumb 17.8267 300.543 0
3064
root -1.39108 15.9986 -34.063 1087.65 2.49404 1.44003
lfemur -34.2548 3.91108 -2.68024
ltibia 54.5349 0 0
lfoot -11.2193 -4.26583 0
ltoes -44.8709 0 0
rfemur -37.3067 -2.49784 24.546
rtibia 61.4899 0 0
rfoot -21.5966 -26.5183 0
rtoes -0.35224 0 0
lowerback 12.9209 0.566719 -1.78923
upperback -1.08246 0.609486 1.62169
thorax -8.46892 0.419462 2.62343
lowerneck 4.1178 -8.94913 -12.3225
upperneck -3.45413 -12.3165 10.1457
head -0.277934 -6.22858 5.02911
lclavicle 7.74269e-15 -1.04194e-14 0
lhumerus 14.3118 -43.6007 87.2893
lradius 69.835 0 0
lwrist -6.98231 0 0
lhand -26.7872 394.528 0
lfingers 7.12502 0 0
lthumb -0.214518 -655.499 0
rclavicle 7.74269e-15 -1.04194e-14 0
rhumerus 20.7824 46.9643 -48.5026
rradius 105.193 0 0
rwrist -42.6995 0 0
rhand -8.03284 -390.556 0
rfingers 7.12502 0 0
rthumb 17.8772 300.246 0
3065
root -1.35644 16.0049 -34.0418 1087.55 2.92258 1.36505
lfemur -34.217 3.88907 -2.83992
ltibia 54.4869 0 0
lfoot -11.3906 -4.14018 0
ltoes -44.7221 0 0
rfemur -37.0266 -2.77041 24.4643
rtibia 61.4275 0 0
rfoot -21.271 -26.6503 0
rtoes -1.25093 0 0
lowerback 12.8904 0.530043 -1.64954
upperback -1.0958 0.58117 1.60495
thorax -8.46254 0.398995 2.53196
lowerneck 3.99313 -8.8463 -12.1874
upperneck -3.31178 -12.1669 10.0517
head -0.244848 -6.15177 4.97473
lclavicle 7.55454e-15 -9.15263e-15 0
lhumerus 13.3428 -43.874 87.7069
lradius 70.0425 0 0
lwrist -5.62534 0 0
lhand -27.1747 395.124 0
lfingers 7.12502 0 0
lthumb -0.588799 -654.905 0
rclavicle 7.55454e-15 -9.15263e-15 0
rhumerus 19.0763 47.362 -49.8289
rradius 105.549 0 0
rwrist -42.5649 0 0
rhand -7.9692 -390.999 0
rfingers 7.12502 0 0
rthumb 17.9384 299.809 0
3066
root -1.3218 16.0111 -34.0205 1087.4 3.59098 1.26934
lfemur -34.1247 3.82063 -3.07261
ltibia 54.3454 0 0
lfoot -11.7016 -4.00863 0
ltoes -44.6071 0 0
rfemur -36.6216 -3.06521 24.3076
rtibia 61.3445 0 0
rfoot -20.8321 -26.7656 0
rtoes -2.49771 0 0
lowerback 12.8407 0.482409 -1.45505
upperback -1.11414 0.546496 1.58187
thorax -8.44964 0.372738 2.40384
lowerneck 3.81139 -8.68398 -11.9904
upperneck -3.10487 -11.932 9.91021
head -0.199646 -6.03121 4.89488
lclavicle 7.18846e-15 -7.34302e-15 0
lhumerus 11.8494 -44.2945 88.3425
lradius 70.3627 0 0
lwrist -3.78365 0 0
lhand -27.6678 395.96 0
lfingers 7.12502 0 0
lthumb -1.06495 -654.072 0
rclavicle 7.18846e-15 -7.34302e-15 0
rhumerus 16.5139 48.005 -51.7432
rradius 106.129 0 0
rwrist -42.3034 0 0
rhand -7.89392 -391.616 0
rfingers 7.12502 0 0
rthumb 18.0109 299.198 0
3067
root -1.28717 16.0174 -33.9993 1087.2 4.55159 1.15018
lfemur -33.963 3.6927 -3.39283
ltibia 54.0845 0 0
lfoot -12.1865 -3.87542 0
ltoes -44.5434 0 0
rfemur -36.0673 -3.37591 24.0571
rtibia 61.2378 0 0
rfoot -20.2612 -26.8526 0
rtoes -4.15527 0 0
lowerback 12.7675 0.422244 -1.19579
upperback -1.13838 0.504892 1.55135
thorax -8.42853 0.339911 2.23232
lowerneck 3.5612 -8.44905 -11.7192
upperneck -2.82061 -11.5931 9.71126
head -0.14023 -5.85731 4.78442
lclavicle 6.59939e-15 -4.8863e-15 0
lhumerus 9.71842 -44.8938 89.2424
lradius 70.8198 0 0
lwrist -1.37504 0 0
lhand -28.2797 397.08 0
lfingers 7.12502 0 0
lthumb -1.65598 -652.955 0
rclavicle 6.59939e-15 -4.8863e-15 0
rhumerus 12.9164 48.9487 -54.3606
rradius 106.984 0 0
rwrist -41.883 0 0
rhand -7.80651 -392.439 0
rfingers 7.12502 0 0
rthumb 18.095 298.383 0
